:SAMPLES-PER-SECOND 30
:FULLY-SPECIFIED
:DEGREES
455
root  -7.14966 39.7441 10.8897 -8.86197 -70.3742 9.98849
RightUpLeg  9.68285 4.91721 -1.95661
RightLeg  32.854 8.70095 5.77062
RightFoot  44.6275 -8.08652 15.7852
RightToes  -1.33073e-015 0 -3.6325e-017
Spine  -13.7069 20.7598 34.2369
Spine1  1.59036 20.9882 -26.4837
HEad  17.1972 -54.6886 -5.69858
LeftShoulder1  5.09897 -12.6715 -25.3608
LeftArm  -45.9206 -28.2076 -22.8665
LeftForeArm  81.4315 -79.4055 -58.2711
LeftHand  -0.246645 0.021 5.37786
RightShoulder  3.05287 11.3715 13.5848
RightArm  96.3691 54.0617 140.044
RightForeArm  56.395 52.1016 10.0477
RightHand  -0.24729 -0.0210522 -5.37781
LeftUpLeg  -11.2862 -9.95431 -8.68383
LeftLeg  24.2828 -58.7763 -21.3938
LeftFoot  7.23092 -0.0408862 -0.0192836
LeftToes  5.09284e-011 3.02203e-011 3.83118e-011
456
root  -7.15016 39.7577 10.8643 -9.59918 -72.0025 10.6722
RightUpLeg  9.4147 5.72734 -2.20974
RightLeg  33.1524 8.79603 5.90201
RightFoot  44.5567 -7.94743 15.5483
RightToes  -1.33073e-015 0 -3.6325e-017
Spine  -13.7804 20.0193 34.42
Spine1  2.05966 20.2341 -26.0505
HEad  16.2401 -52.6124 -4.58939
LeftShoulder1  5.54494 -13.2606 -26.9712
LeftArm  -43.0246 -26.4092 -24.2281
LeftForeArm  76.4081 -78.8795 -54.5506
LeftHand  -0.246645 0.021 5.37786
RightShoulder  3.33598 11.8686 14.8793
RightArm  92.9885 53.8131 135.243
RightForeArm  55.3778 51.8048 9.98798
RightHand  -0.24729 -0.0210522 -5.37781
LeftUpLeg  -11.2704 -9.95599 -8.4572
LeftLeg  23.2475 -57.3202 -20.1123
LeftFoot  6.91807 -0.0553716 0.0826664
LeftToes  5.09284e-011 3.02203e-011 3.83118e-011
457
root  -7.14967 39.7666 10.8432 -10.5398 -73.8833 11.5988
RightUpLeg  9.01826 6.7094 -2.48539
RightLeg  33.5505 9.03527 6.15863
RightFoot  44.4684 -7.76101 15.2277
RightToes  -1.33073e-015 0 -3.6325e-017
Spine  -14.0822 19.293 34.2876
Spine1  2.85615 19.4375 -25.0942
HEad  14.9111 -50.3678 -3.00847
LeftShoulder1  5.98256 -13.7407 -28.6323
LeftArm  -39.7849 -24.2864 -25.627
LeftForeArm  72.7885 -78.4744 -52.2239
LeftHand  -0.246645 0.021 5.37786
RightShoulder  3.6244 12.3234 16.1886
RightArm  89.191 53.3842 129.818
RightForeArm  54.5972 51.9994 10.1227
RightHand  -0.24729 -0.0210522 -5.37781
LeftUpLeg  -11.3322 -9.73444 -8.1714
LeftLeg  22.4254 -55.8364 -19.0708
LeftFoot  6.55802 -0.0866067 0.296775
LeftToes  5.09284e-011 3.02203e-011 3.83118e-011
458
root  -7.15194 39.7736 10.8372 -11.9249 -75.9235 12.8849
RightUpLeg  8.69955 7.62897 -2.88378
RightLeg  33.9318 9.25494 6.40265
RightFoot  44.3847 -7.71999 15.1763
RightToes  -1.33073e-015 0 -3.6325e-017
Spine  -14.5462 18.5556 33.9815
Spine1  4.01707 18.6228 -23.858
HEad  13.6271 -48.3486 -1.31727
LeftShoulder1  6.41823 -14.2207 -30.1781
LeftArm  -36.1353 -21.8325 -27.1531
LeftForeArm  69.8378 -78.1311 -50.5066
LeftHand  -0.246645 0.021 5.37786
RightShoulder  3.95451 12.774 17.7014
RightArm  84.6241 52.6676 123.467
RightForeArm  54.0868 52.6681 10.4486
RightHand  -0.24729 -0.0210522 -5.37781
LeftUpLeg  -11.294 -9.38761 -7.89608
LeftLeg  21.709 -54.3146 -18.1412
LeftFoot  6.15755 -0.124912 0.568358
LeftToes  5.09284e-011 3.02203e-011 3.83118e-011
459
root  -7.15756 39.7856 10.8485 -13.9398 -78.0916 14.692
RightUpLeg  8.5089 8.55836 -3.32306
RightLeg  34.2255 9.23627 6.46002
RightFoot  44.3178 -7.78132 15.3113
RightToes  -1.33073e-015 0 -3.6325e-017
Spine  -14.7831 17.699 33.6544
Spine1  4.99445 17.6927 -22.6568
HEad  12.8115 -46.6515 -0.0587083
LeftShoulder1  6.81905 -14.6919 -31.4536
LeftArm  -32.1098 -18.7645 -28.842
LeftForeArm  67.2922 -77.8431 -49.2752
LeftHand  -0.246645 0.021 5.37786
RightShoulder  4.35281 13.2351 19.5466
RightArm  79.1863 51.3637 116.257
RightForeArm  53.9054 53.6657 10.9143
RightHand  -0.24729 -0.0210522 -5.37781
LeftUpLeg  -11.0894 -9.10572 -7.66292
LeftLeg  20.8986 -52.592 -17.0474
LeftFoot  5.72017 -0.16265 0.85267
LeftToes  5.09284e-011 3.02203e-011 3.83118e-011
460
root  -7.16632 39.8026 10.8639 -17.0738 -80.4508 17.6357
RightUpLeg  8.24847 9.71519 -3.70559
RightLeg  34.5238 9.03552 6.38723
RightFoot  44.2553 -7.69587 15.17
RightToes  -1.33073e-015 0 -3.6325e-017
Spine  -14.9673 16.7245 33.1089
Spine1  5.91609 16.5935 -21.2201
HEad  12.2061 -45.0177 0.809482
LeftShoulder1  7.17417 -15.0897 -32.5622
LeftArm  -27.9204 -15.1369 -30.5544
LeftForeArm  65.1374 -77.6317 -48.5919
LeftHand  -0.246645 0.021 5.37786
RightShoulder  4.75363 13.6114 21.443
RightArm  73.6099 49.4037 108.967
RightForeArm  53.8868 54.8349 11.4771
RightHand  -0.24729 -0.0210522 -5.37781
LeftUpLeg  -10.8787 -8.78874 -7.43008
LeftLeg  20.0691 -50.6799 -15.8812
LeftFoot  5.26811 -0.21169 1.23135
LeftToes  5.09284e-011 3.02203e-011 3.83118e-011
461
root  -7.18152 39.8191 10.8776 -23.1587 -83.0429 23.6192
RightUpLeg  7.7687 10.9752 -4.16961
RightLeg  34.9421 8.82564 6.33298
RightFoot  44.2035 -7.3929 14.6166
RightToes  -1.33073e-015 0 -3.6325e-017
Spine  -15.4451 15.6864 32.0995
Spine1  7.20824 15.3289 -19.2242
HEad  11.4705 -43.229 1.63786
LeftShoulder1  7.49005 -15.3933 -33.6069
LeftArm  -23.6888 -11.2602 -32.2058
LeftForeArm  62.6526 -77.3703 -47.7328
LeftHand  -0.246645 0.021 5.37786
RightShoulder  5.0616 13.8111 22.9919
RightArm  68.6288 46.9702 102.306
RightForeArm  53.5087 56.0142 12.1091
RightHand  -0.24729 -0.0210522 -5.37781
LeftUpLeg  -10.7584 -8.21268 -7.17555
LeftLeg  19.348 -48.7458 -14.8621
LeftFoot  4.80536 -0.275989 1.74024
LeftToes  5.09284e-011 3.02203e-011 3.83118e-011
462
root  -7.20243 39.8346 10.9012 -40.8998 -85.687 41.263
RightUpLeg  7.12536 11.9655 -4.9223
RightLeg  35.4801 8.52791 6.23619
RightFoot  44.1765 -7.01165 13.9074
RightToes  -1.33073e-015 0 -3.6325e-017
Spine  -15.9234 14.5416 30.8245
Spine1  8.59805 13.9163 -16.9866
HEad  10.781 -41.3614 2.43423
LeftShoulder1  7.7235 -15.595 -34.4024
LeftArm  -19.3315 -7.18806 -33.8992
LeftForeArm  58.846 -76.8384 -45.6784
LeftHand  -0.246645 0.021 5.37786
RightShoulder  5.26539 13.865 24.134
RightArm  64.2103 44.1668 96.3541
RightForeArm  52.5792 57.0739 12.7622
RightHand  -0.24729 -0.0210522 -5.37781
LeftUpLeg  -10.6103 -7.40734 -6.92835
LeftLeg  18.649 -46.7787 -13.9214
LeftFoot  4.30228 -0.336659 2.26048
LeftToes  5.09284e-011 3.02203e-011 3.83118e-011
463
root  -7.21841 39.853 10.9401 -88.1747 -87.1853 88.3626
RightUpLeg  6.38843 12.6321 -5.90895
RightLeg  36.0889 7.87558 5.8752
RightFoot  44.1341 -6.58471 13.1143
RightToes  -1.33073e-015 0 -3.6325e-017
Spine  -15.836 13.2227 29.8771
Spine1  9.58786 12.457 -15.3252
HEad  10.331 -39.5458 3.11868
LeftShoulder1  7.72891 -15.5868 -34.4464
LeftArm  -14.7567 -2.94443 -35.922
LeftForeArm  53.8216 -75.9298 -42.3096
LeftHand  -0.246645 0.021 5.37786
RightShoulder  5.44938 13.9005 25.1777
RightArm  60.1193 41.0789 90.9699
RightForeArm  51.5367 57.9293 13.3466
RightHand  -0.24729 -0.0210522 -5.37781
LeftUpLeg  -10.3423 -6.5072 -6.68579
LeftLeg  17.8786 -44.606 -12.9034
LeftFoot  3.748 -0.38103 2.70489
LeftToes  5.09284e-011 3.02203e-011 3.83118e-011
464
root  -7.2225 39.8743 10.9797 -145.495 -85.4809 145.459
RightUpLeg  5.53091 13.2576 -6.91878
RightLeg  36.7542 6.7455 5.12706
RightFoot  43.9891 -6.01772 12.0785
RightToes  -1.33073e-015 0 -3.6325e-017
Spine  -15.4002 11.8272 28.9593
Spine1  10.4533 10.9853 -13.8466
HEad  10.0117 -37.881 3.60391
LeftShoulder1  7.62498 -15.4708 -34.1509
LeftArm  -10.048 1.11059 -37.9632
LeftForeArm  48.5022 -74.6524 -38.2048
LeftHand  -0.246645 0.021 5.37786
RightShoulder  5.66541 14.0059 26.2689
RightArm  56.2642 37.9494 85.6585
RightForeArm  50.4072 58.4869 13.7848
RightHand  -0.24729 -0.0210522 -5.37781
LeftUpLeg  -10.0133 -5.44128 -6.40714
LeftLeg  17.1086 -42.223 -11.8784
LeftFoot  3.17402 -0.416734 3.12077
LeftToes  5.09284e-011 3.02203e-011 3.83118e-011
465
root  -7.22225 39.8974 11.0112 -162.188 -81.8608 161.909
RightUpLeg  4.57872 13.9169 -7.90518
RightLeg  37.4282 5.26177 4.04873
RightFoot  43.6902 -5.32494 10.8286
RightToes  -1.33073e-015 0 -3.6325e-017
Spine  -14.9831 10.4717 27.5231
Spine1  11.5721 9.48533 -11.8536
HEad  9.55947 -36.439 4.03014
LeftShoulder1  7.53281 -15.332 -33.961
LeftArm  -5.42958 4.44169 -39.8039
LeftForeArm  43.6532 -72.8932 -33.5208
LeftHand  -0.246645 0.021 5.37786
RightShoulder  5.7994 14.028 27.0208
RightArm  52.7834 34.8712 80.4872
RightForeArm  48.3615 58.5596 14.0134
RightHand  -0.24729 -0.0210522 -5.37781
LeftUpLeg  -9.62495 -4.13323 -6.08463
LeftLeg  16.3376 -39.7886 -10.9377
LeftFoot  2.62544 -0.443844 3.49248
LeftToes  5.09284e-011 3.02203e-011 3.83118e-011
466
root  -7.21985 39.922 11.0478 -168.351 -77.8423 167.777
RightUpLeg  3.60692 14.4472 -8.99041
RightLeg  38.0656 3.67527 2.81857
RightFoot  43.1801 -4.6013 9.54072
RightToes  -1.33073e-015 0 -3.6325e-017
Spine  -14.4214 9.17013 25.6476
Spine1  12.7156 7.99475 -9.43481
HEad  8.92145 -35.2417 4.50631
LeftShoulder1  7.46317 -15.188 -33.8985
LeftArm  -1.15225 6.87679 -41.2728
LeftForeArm  39.6445 -70.2508 -28.0636
LeftHand  -0.246645 0.021 5.37786
RightShoulder  5.79672 13.8828 27.2924
RightArm  49.538 31.7125 75.6324
RightForeArm  45.3351 58.1793 14.0475
RightHand  -0.24729 -0.0210522 -5.37781
LeftUpLeg  -9.09352 -2.78789 -5.76364
LeftLeg  15.4336 -37.2754 -9.98791
LeftFoot  2.12227 -0.445563 3.66406
LeftToes  5.09284e-011 3.02203e-011 3.83118e-011
467
root  -7.19812 39.9476 11.1021 -171.737 -73.5811 170.811
RightUpLeg  2.58034 14.9105 -10.2017
RightLeg  38.6766 2.23951 1.65236
RightFoot  42.3746 -3.88301 8.2803
RightToes  -1.33073e-015 0 -3.6325e-017
Spine  -13.2774 7.8899 23.8013
Spine1  13.3862 6.61944 -7.21671
HEad  8.2318 -34.1731 4.9607
LeftShoulder1  7.39542 -15.0568 -33.8179
LeftArm  2.66157 8.66515 -42.1451
LeftForeArm  37.0587 -66.4422 -22.4163
LeftHand  -0.246645 0.021 5.37786
RightShoulder  5.80055 13.7243 27.6343
RightArm  46.266 28.4803 70.7635
RightForeArm  43.2592 57.8371 14.0223
RightHand  -0.24729 -0.0210522 -5.37781
LeftUpLeg  -8.46225 -1.62274 -5.45874
LeftLeg  14.4115 -34.4856 -8.96124
LeftFoot  1.64972 -0.418241 3.58417
LeftToes  5.09284e-011 3.02203e-011 3.83118e-011
468
root  -7.14787 39.9705 11.1676 -174.053 -69.1138 172.788
RightUpLeg  1.4105 15.484 -11.4036
RightLeg  39.2436 1.05315 0.64914
RightFoot  41.2423 -3.23112 7.15231
RightToes  -1.33073e-015 0 -3.6325e-017
Spine  -11.6503 6.64357 22.0538
Spine1  13.6704 5.35212 -5.31482
HEad  7.59562 -33.0075 5.2639
LeftShoulder1  7.38403 -15.0148 -33.8467
LeftArm  5.83036 10.1194 -42.335
LeftForeArm  36.3426 -61.9101 -17.7064
LeftHand  -0.246645 0.021 5.37786
RightShoulder  5.91807 13.682 28.4253
RightArm  43.4126 25.6215 65.5463
RightForeArm  43.8925 57.9933 14.0629
RightHand  -0.24729 -0.0210522 -5.37781
LeftUpLeg  -7.91837 -0.547862 -5.0778
LeftLeg  13.561 -31.4106 -8.03856
LeftFoot  1.13882 -0.385554 3.46251
LeftToes  5.09284e-011 3.02203e-011 3.83118e-011
469
root  -7.08842 39.9914 11.2321 -175.821 -64.5482 174.286
RightUpLeg  0.140862 15.9842 -12.5449
RightLeg  39.6621 0.0190592 -0.258882
RightFoot  39.7996 -2.7589 6.37556
RightToes  -1.33073e-015 0 -3.6325e-017
Spine  -10.0693 5.44673 20.1017
Spine1  14.0707 4.04403 -3.35031
HEad  7.03052 -31.6136 5.42697
LeftShoulder1  7.46177 -15.0778 -34.1268
LeftArm  7.93642 11.4362 -42.2372
LeftForeArm  36.8504 -57.5299 -14.4092
LeftHand  -0.246645 0.021 5.37786
RightShoulder  5.99337 13.585 29.0803
RightArm  42.0923 23.6686 60.6282
RightForeArm  46.276 58.3498 14.0683
RightHand  -0.24729 -0.0210522 -5.37781
LeftUpLeg  -7.49702 0.612903 -4.55413
LeftLeg  12.9871 -28.265 -7.34779
LeftFoot  0.550591 -0.365935 3.48139
LeftToes  5.09284e-011 3.02203e-011 3.83118e-011
